<mxfile host="app.diagrams.net" modified="2022-09-10T21:47:41.271Z" agent="5.0 (Macintosh; Intel Mac OS X 10_15_7) AppleWebKit/537.36 (KHTML, like Gecko) Chrome/105.0.0.0 Safari/537.36" etag="i2nnEH_ta9yUkLJTNqbd" version="19.0.3" type="github">
  <diagram id="IyuzRh-bq4wLjny1QPLT" name="Page-1">
    <mxGraphModel dx="1234" dy="760" grid="1" gridSize="10" guides="1" tooltips="1" connect="1" arrows="1" fold="1" page="1" pageScale="1" pageWidth="827" pageHeight="1169" math="0" shadow="0">
      <root>
        <mxCell id="0" />
        <mxCell id="1" parent="0" />
        <mxCell id="Fvs6XjRNey9g919BWsW9-2" value="" style="rounded=0;whiteSpace=wrap;html=1;" vertex="1" parent="1">
          <mxGeometry x="80" y="60" width="390" height="60" as="geometry" />
        </mxCell>
        <mxCell id="Fvs6XjRNey9g919BWsW9-1" value="" style="whiteSpace=wrap;html=1;aspect=fixed;" vertex="1" parent="1">
          <mxGeometry x="10" y="20" width="710" height="710" as="geometry" />
        </mxCell>
        <mxCell id="Fvs6XjRNey9g919BWsW9-3" value="&lt;span style=&quot;color: rgb(0, 0, 0); font-family: Helvetica; font-size: 12px; font-style: normal; font-variant-ligatures: normal; font-variant-caps: normal; font-weight: 400; letter-spacing: normal; orphans: 2; text-align: center; text-indent: 0px; text-transform: none; widows: 2; word-spacing: 0px; -webkit-text-stroke-width: 0px; background-color: rgb(248, 249, 250); text-decoration-thickness: initial; text-decoration-style: initial; text-decoration-color: initial; float: none; display: inline !important;&quot;&gt;genre2&lt;/span&gt;" style="text;html=1;strokeColor=none;fillColor=none;align=center;verticalAlign=middle;whiteSpace=wrap;rounded=0;" vertex="1" parent="1">
          <mxGeometry x="120" y="75" width="60" height="30" as="geometry" />
        </mxCell>
        <mxCell id="Fvs6XjRNey9g919BWsW9-4" value="genre1" style="text;html=1;strokeColor=none;fillColor=none;align=center;verticalAlign=middle;whiteSpace=wrap;rounded=0;" vertex="1" parent="1">
          <mxGeometry x="70" y="75" width="60" height="30" as="geometry" />
        </mxCell>
        <mxCell id="Fvs6XjRNey9g919BWsW9-5" value="genre4" style="text;html=1;strokeColor=none;fillColor=none;align=center;verticalAlign=middle;whiteSpace=wrap;rounded=0;" vertex="1" parent="1">
          <mxGeometry x="220" y="75" width="60" height="30" as="geometry" />
        </mxCell>
        <mxCell id="Fvs6XjRNey9g919BWsW9-7" value="genre3" style="text;html=1;strokeColor=none;fillColor=none;align=center;verticalAlign=middle;whiteSpace=wrap;rounded=0;" vertex="1" parent="1">
          <mxGeometry x="170" y="75" width="60" height="30" as="geometry" />
        </mxCell>
        <mxCell id="Fvs6XjRNey9g919BWsW9-8" value="(24+)" style="text;html=1;strokeColor=none;fillColor=none;align=center;verticalAlign=middle;whiteSpace=wrap;rounded=0;" vertex="1" parent="1">
          <mxGeometry x="330" y="75" width="60" height="30" as="geometry" />
        </mxCell>
        <mxCell id="Fvs6XjRNey9g919BWsW9-22" value="" style="whiteSpace=wrap;html=1;aspect=fixed;" vertex="1" parent="1">
          <mxGeometry x="500" y="60" width="60" height="60" as="geometry" />
        </mxCell>
        <mxCell id="Fvs6XjRNey9g919BWsW9-23" value="" style="whiteSpace=wrap;html=1;" vertex="1" parent="1">
          <mxGeometry x="75" y="165" width="585" height="155" as="geometry" />
        </mxCell>
        <mxCell id="Fvs6XjRNey9g919BWsW9-9" value="" style="whiteSpace=wrap;html=1;aspect=fixed;" vertex="1" parent="1">
          <mxGeometry x="90" y="200" width="80" height="80" as="geometry" />
        </mxCell>
        <mxCell id="Fvs6XjRNey9g919BWsW9-10" value="" style="whiteSpace=wrap;html=1;aspect=fixed;" vertex="1" parent="1">
          <mxGeometry x="210" y="200" width="80" height="80" as="geometry" />
        </mxCell>
        <mxCell id="Fvs6XjRNey9g919BWsW9-11" value="" style="whiteSpace=wrap;html=1;aspect=fixed;" vertex="1" parent="1">
          <mxGeometry x="440" y="200" width="80" height="80" as="geometry" />
        </mxCell>
        <mxCell id="Fvs6XjRNey9g919BWsW9-12" value="" style="whiteSpace=wrap;html=1;aspect=fixed;" vertex="1" parent="1">
          <mxGeometry x="327.5" y="200" width="80" height="80" as="geometry" />
        </mxCell>
        <mxCell id="Fvs6XjRNey9g919BWsW9-15" value="" style="whiteSpace=wrap;html=1;aspect=fixed;" vertex="1" parent="1">
          <mxGeometry x="110" y="200" width="40" height="40" as="geometry" />
        </mxCell>
        <mxCell id="Fvs6XjRNey9g919BWsW9-16" value="" style="whiteSpace=wrap;html=1;aspect=fixed;" vertex="1" parent="1">
          <mxGeometry x="230" y="200" width="40" height="40" as="geometry" />
        </mxCell>
        <mxCell id="Fvs6XjRNey9g919BWsW9-17" value="" style="whiteSpace=wrap;html=1;aspect=fixed;" vertex="1" parent="1">
          <mxGeometry x="345" y="200" width="40" height="40" as="geometry" />
        </mxCell>
        <mxCell id="Fvs6XjRNey9g919BWsW9-18" value="" style="whiteSpace=wrap;html=1;aspect=fixed;" vertex="1" parent="1">
          <mxGeometry x="460" y="200" width="40" height="40" as="geometry" />
        </mxCell>
        <mxCell id="Fvs6XjRNey9g919BWsW9-28" value="" style="whiteSpace=wrap;html=1;aspect=fixed;" vertex="1" parent="1">
          <mxGeometry x="550" y="200" width="80" height="80" as="geometry" />
        </mxCell>
        <mxCell id="Fvs6XjRNey9g919BWsW9-29" value="" style="whiteSpace=wrap;html=1;aspect=fixed;" vertex="1" parent="1">
          <mxGeometry x="570" y="200" width="40" height="40" as="geometry" />
        </mxCell>
        <mxCell id="Fvs6XjRNey9g919BWsW9-30" value="genre5" style="text;html=1;strokeColor=none;fillColor=none;align=center;verticalAlign=middle;whiteSpace=wrap;rounded=0;" vertex="1" parent="1">
          <mxGeometry x="270" y="75" width="60" height="30" as="geometry" />
        </mxCell>
        <mxCell id="Fvs6XjRNey9g919BWsW9-31" value="" style="whiteSpace=wrap;html=1;" vertex="1" parent="1">
          <mxGeometry x="75" y="390" width="585" height="310" as="geometry" />
        </mxCell>
        <mxCell id="Fvs6XjRNey9g919BWsW9-27" value="" style="whiteSpace=wrap;html=1;aspect=fixed;" vertex="1" parent="1">
          <mxGeometry x="450" y="470" width="160" height="160" as="geometry" />
        </mxCell>
        <mxCell id="Fvs6XjRNey9g919BWsW9-32" value="&lt;h1&gt;Heading&lt;/h1&gt;&lt;p&gt;Lorem ipsum dolor sit amet, consectetur adipisicing elit, sed do eiusmod tempor incididunt ut labore et dolore magna aliqua.&lt;/p&gt;" style="text;html=1;strokeColor=none;fillColor=none;spacing=5;spacingTop=-20;whiteSpace=wrap;overflow=hidden;rounded=0;" vertex="1" parent="1">
          <mxGeometry x="130" y="480" width="190" height="120" as="geometry" />
        </mxCell>
        <mxCell id="Fvs6XjRNey9g919BWsW9-33" value="TextTextTextTextTextTextText" style="text;html=1;strokeColor=none;fillColor=none;align=center;verticalAlign=middle;whiteSpace=wrap;rounded=0;fontSize=18;" vertex="1" parent="1">
          <mxGeometry x="130" y="420" width="490" height="30" as="geometry" />
        </mxCell>
        <mxCell id="Fvs6XjRNey9g919BWsW9-35" value="" style="shape=image;html=1;verticalAlign=top;verticalLabelPosition=bottom;labelBackgroundColor=#ffffff;imageAspect=0;aspect=fixed;image=https://cdn0.iconfinder.com/data/icons/evericons-24px-vol-2/24/player-play-pause-128.png" vertex="1" parent="1">
          <mxGeometry x="130" y="660" width="30" height="30" as="geometry" />
        </mxCell>
        <mxCell id="Fvs6XjRNey9g919BWsW9-36" value="" style="shape=image;html=1;verticalAlign=top;verticalLabelPosition=bottom;labelBackgroundColor=#ffffff;imageAspect=0;aspect=fixed;image=https://cdn0.iconfinder.com/data/icons/evericons-24px-vol-2/24/player-skip-back-128.png" vertex="1" parent="1">
          <mxGeometry x="90" y="660" width="28" height="28" as="geometry" />
        </mxCell>
        <mxCell id="Fvs6XjRNey9g919BWsW9-37" value="" style="shape=image;html=1;verticalAlign=top;verticalLabelPosition=bottom;labelBackgroundColor=#ffffff;imageAspect=0;aspect=fixed;image=https://cdn0.iconfinder.com/data/icons/evericons-24px-vol-2/24/player-skip-forward-128.png" vertex="1" parent="1">
          <mxGeometry x="170" y="658.5" width="33" height="33" as="geometry" />
        </mxCell>
        <mxCell id="Fvs6XjRNey9g919BWsW9-38" value="" style="shape=image;html=1;verticalAlign=top;verticalLabelPosition=bottom;labelBackgroundColor=#ffffff;imageAspect=0;aspect=fixed;image=https://cdn0.iconfinder.com/data/icons/social-media-entertainment-line/32/Apple_Music-128.png" vertex="1" parent="1">
          <mxGeometry x="531" y="566" width="38" height="38" as="geometry" />
        </mxCell>
      </root>
    </mxGraphModel>
  </diagram>
</mxfile>
